#N canvas 0 0 450 300 10;
#X obj 70 180 inlet~;
#X obj 130 180 inlet~;
#X obj 190 180 inlet~;
#X obj 250 180 inlet~;
#X obj 310 180 inlet~;
#X obj 370 180 inlet~;
#X obj 430 180 inlet~;
#X obj 490 180 inlet~;
#X obj 550 180 inlet~;
#X obj 610 180 inlet~;
#X obj 670 180 inlet~;
#X obj 730 180 inlet~;
#X obj 790 180 inlet~;
#X obj 850 180 inlet~;
#X obj 910 180 inlet~;
#X obj 970 180 inlet~;
#X obj 1030 180 inlet~;
#X obj 1090 180 inlet~;
#X obj 1150 180 inlet~;
#X obj 1210 180 inlet~;
#X obj 1270 180 inlet~;
#X obj 1330 180 inlet~;
#X obj 1390 180 inlet~;
#X obj 1450 180 inlet~;
#X obj 1510 180 inlet~;
#X obj 1570 180 inlet~;
#X obj 1630 180 inlet~;
#X obj 1690 180 inlet~;
#X obj 1750 180 inlet~;
#X obj 1810 180 inlet~;
#X obj 1870 180 inlet~;
#X obj 1930 180 inlet~;
#X obj 1990 180 inlet~;
#X obj 2050 180 inlet~;
#X obj 2110 180 inlet~;
#X obj 2170 180 inlet~;
#X obj 2230 180 inlet~;
#X obj 2290 180 inlet~;
#X obj 2350 180 inlet~;
#X obj 2410 180 inlet~;
#X obj 2470 180 inlet~;
#X obj 2530 180 inlet~;
#X obj 2590 180 inlet~;
#X obj 2650 180 inlet~;
#X obj 2710 180 inlet~;
#X obj 2770 180 inlet~;
#X obj 2830 180 inlet~;
#X obj 2890 180 inlet~;
#X obj 2950 180 inlet~;
#X obj 3010 180 inlet~;
#X obj 3070 180 inlet~;
#X obj 3130 180 inlet~;
#X obj 3190 180 inlet~;
#X obj 3250 180 inlet~;
#X obj 3310 180 inlet~;
#X obj 3370 180 inlet~;
#X obj 3430 180 inlet~;
#X obj 3490 180 inlet~;
#X obj 3550 180 inlet~;
#X obj 3610 180 inlet~;
#X obj 3670 180 inlet~;
#X obj 3730 180 inlet~;
#X obj 3790 180 inlet~;
#X obj 3850 180 inlet~;
#X obj 3910 180 inlet~;
#X obj 3970 180 inlet~;
#X obj 4030 180 inlet~;
#X obj 4090 180 inlet~;
#X obj 4150 180 inlet~;
#X obj 4210 180 inlet~;
#X obj 4270 180 inlet~;
#X obj 4330 180 inlet~;
#X obj 4390 180 inlet~;
#X obj 4450 180 inlet~;
#X obj 4510 180 inlet~;
#X obj 4570 180 inlet~;
#X obj 4630 180 inlet~;
#X obj 4690 180 inlet~;
#X obj 4750 180 inlet~;
#X obj 4810 180 inlet~;
#X obj 4870 180 inlet~;
#X obj 4930 180 inlet~;
#X obj 4990 180 inlet~;
#X obj 5050 180 inlet~;
#X obj 5110 180 inlet~;
#X obj 5170 180 inlet~;
#X obj 5230 180 inlet~;
#X obj 5290 180 inlet~;
#X obj 5350 180 inlet~;
#X obj 5410 180 inlet~;
#X obj 5470 180 inlet~;
#X obj 5530 180 inlet~;
#X obj 5590 180 inlet~;
#X obj 5650 180 inlet~;
#X obj 5710 180 inlet~;
#X obj 5770 180 inlet~;
#X obj 5830 180 inlet~;
#X obj 5890 180 inlet~;
#X obj 5950 180 inlet~;
#X obj 6010 180 inlet~;
#X obj 10 180 inlet;
#X obj 6070 180 r \$0-read;
#X obj 6070 210 faust-control \$0;
#X obj 6070 240 s \$0-write;
#X obj 10 240 r \$0-in;
#X obj 10 270 funsaxophone~;
#X obj 10 300 s \$0-out;
#X obj 70 330 outlet~;
#X obj 10 330 outlet;
#X connect 100 0 102 0;
#X connect 101 0 102 0;
#X connect 102 0 103 0;
#X connect 105 0 106 0;
#X connect 100 0 108 0;
#X connect 104 0 105 0;
#X connect 0 0 105 1;
#X connect 1 0 105 2;
#X connect 2 0 105 3;
#X connect 3 0 105 4;
#X connect 4 0 105 5;
#X connect 5 0 105 6;
#X connect 6 0 105 7;
#X connect 7 0 105 8;
#X connect 8 0 105 9;
#X connect 9 0 105 10;
#X connect 10 0 105 11;
#X connect 11 0 105 12;
#X connect 12 0 105 13;
#X connect 13 0 105 14;
#X connect 14 0 105 15;
#X connect 15 0 105 16;
#X connect 16 0 105 17;
#X connect 17 0 105 18;
#X connect 18 0 105 19;
#X connect 19 0 105 20;
#X connect 20 0 105 21;
#X connect 21 0 105 22;
#X connect 22 0 105 23;
#X connect 23 0 105 24;
#X connect 24 0 105 25;
#X connect 25 0 105 26;
#X connect 26 0 105 27;
#X connect 27 0 105 28;
#X connect 28 0 105 29;
#X connect 29 0 105 30;
#X connect 30 0 105 31;
#X connect 31 0 105 32;
#X connect 32 0 105 33;
#X connect 33 0 105 34;
#X connect 34 0 105 35;
#X connect 35 0 105 36;
#X connect 36 0 105 37;
#X connect 37 0 105 38;
#X connect 38 0 105 39;
#X connect 39 0 105 40;
#X connect 40 0 105 41;
#X connect 41 0 105 42;
#X connect 42 0 105 43;
#X connect 43 0 105 44;
#X connect 44 0 105 45;
#X connect 45 0 105 46;
#X connect 46 0 105 47;
#X connect 47 0 105 48;
#X connect 48 0 105 49;
#X connect 49 0 105 50;
#X connect 50 0 105 51;
#X connect 51 0 105 52;
#X connect 52 0 105 53;
#X connect 53 0 105 54;
#X connect 54 0 105 55;
#X connect 55 0 105 56;
#X connect 56 0 105 57;
#X connect 57 0 105 58;
#X connect 58 0 105 59;
#X connect 59 0 105 60;
#X connect 60 0 105 61;
#X connect 61 0 105 62;
#X connect 62 0 105 63;
#X connect 63 0 105 64;
#X connect 64 0 105 65;
#X connect 65 0 105 66;
#X connect 66 0 105 67;
#X connect 67 0 105 68;
#X connect 68 0 105 69;
#X connect 69 0 105 70;
#X connect 70 0 105 71;
#X connect 71 0 105 72;
#X connect 72 0 105 73;
#X connect 73 0 105 74;
#X connect 74 0 105 75;
#X connect 75 0 105 76;
#X connect 76 0 105 77;
#X connect 77 0 105 78;
#X connect 78 0 105 79;
#X connect 79 0 105 80;
#X connect 80 0 105 81;
#X connect 81 0 105 82;
#X connect 82 0 105 83;
#X connect 83 0 105 84;
#X connect 84 0 105 85;
#X connect 85 0 105 86;
#X connect 86 0 105 87;
#X connect 87 0 105 88;
#X connect 88 0 105 89;
#X connect 89 0 105 90;
#X connect 90 0 105 91;
#X connect 91 0 105 92;
#X connect 92 0 105 93;
#X connect 93 0 105 94;
#X connect 94 0 105 95;
#X connect 95 0 105 96;
#X connect 96 0 105 97;
#X connect 97 0 105 98;
#X connect 98 0 105 99;
#X connect 99 0 105 100;
#X connect 105 1 107 0;
#X obj 10 30 hsl 128 15 10 880 0 0 \$0-funsaxophone/freq \$0-funsaxophone/freq freq -2 -6 0 10 -262144 -1 -1 0 1;
#X obj 160 30 nbx 5 14 10 880 0 0 \$0-funsaxophone/freq \$0-funsaxophone/freq empty 0 -6 0 10 -262144 -1 -1 256;
#X obj 10 60 hsl 128 15 0 1 0 0 \$0-funsaxophone/gamma \$0-funsaxophone/gamma gamma -2 -6 0 10 -262144 -1 -1 0 1;
#X obj 160 60 nbx 5 14 0 1 0 0 \$0-funsaxophone/gamma \$0-funsaxophone/gamma empty 0 -6 0 10 -262144 -1 -1 256;
#X obj 10 90 hsl 128 15 0 2 0 0 \$0-funsaxophone/zeta \$0-funsaxophone/zeta zeta -2 -6 0 10 -262144 -1 -1 0 1;
#X obj 160 90 nbx 5 14 0 2 0 0 \$0-funsaxophone/zeta \$0-funsaxophone/zeta empty 0 -6 0 10 -262144 -1 -1 256;
#X obj 197 3 bng 15 250 50 1 \$0-init \$0-ignore empty 0 -6 0 10 -262144 -1 -1;
#X obj 217 3 tgl 15 1 \$0-active \$0-active empty 0 -6 0 10 -262144 -1 -1 1 1;
#X obj 450 10 r \$0-init;
#X obj 658 10 s \$0-in;
#X obj 762 10 s \$0-read;
#X obj 866 10 r \$0-write;
#X msg 450 30 1;
#X obj 450 50 s \$0-active;
#X connect 121 0 122 0;
#X obj 658 30 r \$0-active;
#X msg 658 50 active \$1;
#X connect 123 0 124 0;
#X connect 124 0 118 0;
#X obj 866 30 route active;
#X obj 866 50 s \$0-active;
#X connect 120 0 125 0;
#X connect 125 0 126 0;
#X msg 450 70 220;
#X obj 450 90 s \$0-funsaxophone/freq;
#X connect 117 0 127 0;
#X connect 127 0 128 0;
#X obj 658 70 r \$0-funsaxophone/freq;
#X msg 658 90 /funsaxophone/freq \$1;
#X connect 129 0 130 0;
#X connect 130 0 118 0;
#X obj 866 70 route /funsaxophone/freq;
#X obj 866 90 s \$0-funsaxophone/freq;
#X connect 125 1 131 0;
#X connect 131 0 132 0;
#X msg 450 110 0;
#X obj 450 130 s \$0-funsaxophone/gamma;
#X connect 117 0 133 0;
#X connect 133 0 134 0;
#X obj 658 110 r \$0-funsaxophone/gamma;
#X msg 658 130 /funsaxophone/gamma \$1;
#X connect 135 0 136 0;
#X connect 136 0 118 0;
#X obj 866 110 route /funsaxophone/gamma;
#X obj 866 130 s \$0-funsaxophone/gamma;
#X connect 131 1 137 0;
#X connect 137 0 138 0;
#X msg 450 150 0;
#X obj 450 170 s \$0-funsaxophone/zeta;
#X connect 117 0 139 0;
#X connect 139 0 140 0;
#X obj 658 150 r \$0-funsaxophone/zeta;
#X msg 658 170 /funsaxophone/zeta \$1;
#X connect 141 0 142 0;
#X connect 142 0 118 0;
#X obj 866 150 route /funsaxophone/zeta;
#X obj 866 170 s \$0-funsaxophone/zeta;
#X connect 137 1 143 0;
#X connect 143 0 144 0;
#X coords 0 -1 1 1 235 110 1 0 0;
#X text 0 130 Generated Tue Jan 23 20:09:18 2018 by faust2pd v2.12. See http://faust.grame.fr and http://purelang.bitbucket.org.;
