#N canvas 41 93 1239 719 10;
#X obj 293 592 dac~;
#X msg 220 303 gamma \$1;
#X msg 299 304 zeta \$1;
#X floatatom 528 150 5 0 0 0 - - -, f 5;
#X obj 528 105 ctlin;
#X floatatom 544 129 5 0 0 0 - - -, f 5;
#X obj 735 74 loadbang;
#X text 819 89 gamma min/max;
#X text 998 90 zeta min/max;
#X obj 735 143 -;
#X obj 918 142 -;
#X obj 900 167 *;
#X obj 717 167 *;
#X obj 900 189 +;
#X obj 717 189 +;
#X obj 735 113 s gmin;
#X obj 785 113 s gmax;
#X obj 918 113 s zmin;
#X obj 970 113 s zmax;
#X msg 735 91 0;
#X msg 918 91 0;
#X obj 156 324 loadbang;
#X msg 156 346 active 1;
#X obj 717 31 tgl 15 0 empty empty empty 17 7 0 10 -262144 -1 -1 0
1;
#X obj 714 413 vsl 15 128 0 50 0 1 empty empty empty 0 -9 0 10 -262144
-1 -1 0 1;
#X obj 729 413 vsl 15 128 0 1000 0 1 empty empty empty 0 -9 0 10 -262144
-1 -1 0 1;
#X obj 744 413 vsl 15 128 1 100 0 1 empty empty empty 0 -9 0 10 -258113
-1 -1 12700 1;
#X obj 759 413 vsl 15 128 0 1000 0 1 empty empty empty 0 -9 0 10 -262144
-1 -1 0 1;
#X obj 699 595 snapshot~;
#X obj 788 578 metro 1;
#X obj 788 557 tgl 15 0 empty empty empty 17 7 0 10 -262144 -1 -1 1
1;
#X obj 674 528 > 0;
#X floatatom 762 206 5 0 0 0 - - -, f 5;
#X obj 699 617 *;
#X obj 292 540 *~;
#X obj 310 400 vsl 15 128 0 40 0 1 empty empty empty 0 -9 0 10 -262144
-1 -1 2500 1;
#X floatatom 717 336 5 0 0 0 - - -, f 5;
#X msg 762 297 1.1;
#X obj 717 373 *;
#X obj 717 270 notein 1;
#X obj 801 272 loadbang;
#X floatatom 900 336 5 0 0 0 - - -, f 5;
#X obj 900 373 *;
#X obj 900 270 notein 1;
#X obj 984 272 loadbang;
#X msg 953 297 0.2;
#X floatatom 945 206 5 0 0 0 - - -, f 5;
#X text 912 51 (!) cartographie n'utilise pas kbdTrack;
#X obj 802 299 tgl 15 0 empty empty empty 17 7 0 10 -4034 -1 -1 0 1
;
#X obj 985 299 tgl 15 0 empty empty empty 17 7 0 10 -4034 -1 -1 0 1
;
#X obj 717 211 t b f;
#X obj 900 211 t b f;
#X text 775 517 enveloppe sur gamma;
#X obj 699 649 s gammaCtl;
#X obj 900 398 s zetaCtl;
#X obj 220 280 r gammaCtl;
#X obj 299 281 r zetaCtl;
#X obj 63 363 funsaxophone;
#X msg 63 308 freq \$1;
#X floatatom 671 661 5 0 0 0 - - -, f 5;
#X obj 717 50 ../ControlTool/displayCarto;
#X obj 717 314 ../ControlTool/kbdTrack;
#X obj 900 314 ../ControlTool/kbdTrack;
#X obj 699 548 ../ControlTool/adsrV2;
#X obj 63 178 mtof;
#X obj 63 135 t f f;
#X floatatom 131 220 5 0 0 0 - - -, f 5;
#X obj 230 113 loadbang;
#X obj 133 174 *;
#X obj 227 137 tgl 15 0 empty empty empty 17 7 0 10 -4034 -1 -1 1 1
;
#X obj 321 4 bendin;
#X obj 321 26 - 8192;
#X obj 321 48 / 8192;
#X obj 63 87 +;
#X obj 321 70 t b f;
#X obj 63 65 ../ControlTool/monophonicControl;
#X obj 131 200 ../ControlTool/linearizeFreq;
#X obj 133 152 ../ControlTool/kbdTrack;
#X msg 785 91 3;
#X obj 63 279 moses 600;
#X floatatom 63 200 5 0 0 0 - - -, f 5;
#X obj 940 414 vsl 15 128 0 50 0 1 empty empty empty 0 -9 0 10 -262144
-1 -1 0 1;
#X obj 955 414 vsl 15 128 0 1000 0 1 empty empty empty 0 -9 0 10 -262144
-1 -1 2400 1;
#X obj 970 414 vsl 15 128 1 100 0 1 empty empty empty 0 -9 0 10 -258113
-1 -1 12700 1;
#X obj 985 414 vsl 15 128 0 1000 0 1 empty empty empty 0 -9 0 10 -262144
-1 -1 300 1;
#X obj 925 596 snapshot~;
#X obj 1014 579 metro 1;
#X obj 1014 558 tgl 15 0 empty empty empty 17 7 0 10 -262144 -1 -1
0 1;
#X obj 900 529 > 0;
#X obj 925 618 *;
#X text 1001 518 enveloppe sur gamma;
#X floatatom 897 662 5 0 0 0 - - -, f 5;
#X obj 925 549 ../ControlTool/adsrV2;
#X obj 925 650 s zetaCtl;
#X msg 735 297 80;
#X msg 926 297 1;
#X floatatom 18 176 5 0 0 0 - - -, f 5;
#X msg 190 130 0;
#X msg 159 130 5000;
#X msg 970 91 0.6;
#X connect 1 0 57 0;
#X connect 2 0 57 0;
#X connect 4 0 3 0;
#X connect 4 1 5 0;
#X connect 6 0 19 0;
#X connect 6 0 78 0;
#X connect 6 0 20 0;
#X connect 6 0 99 0;
#X connect 9 0 12 1;
#X connect 10 0 11 1;
#X connect 11 0 13 0;
#X connect 12 0 14 0;
#X connect 13 0 46 0;
#X connect 13 0 51 0;
#X connect 14 0 32 0;
#X connect 14 0 50 0;
#X connect 19 0 9 1;
#X connect 19 0 14 1;
#X connect 19 0 15 0;
#X connect 20 0 10 1;
#X connect 20 0 13 1;
#X connect 20 0 17 0;
#X connect 21 0 22 0;
#X connect 22 0 57 0;
#X connect 23 0 60 0;
#X connect 24 0 63 1;
#X connect 25 0 63 2;
#X connect 26 0 63 3;
#X connect 27 0 63 4;
#X connect 28 0 33 0;
#X connect 29 0 28 0;
#X connect 30 0 29 0;
#X connect 31 0 63 0;
#X connect 33 0 59 0;
#X connect 33 0 53 0;
#X connect 34 0 0 0;
#X connect 34 0 0 1;
#X connect 35 0 34 1;
#X connect 36 0 38 0;
#X connect 37 0 61 2;
#X connect 38 0 33 1;
#X connect 39 0 61 0;
#X connect 40 0 94 0;
#X connect 40 0 37 0;
#X connect 41 0 42 0;
#X connect 42 0 54 0;
#X connect 43 0 62 0;
#X connect 44 0 95 0;
#X connect 44 0 45 0;
#X connect 45 0 62 2;
#X connect 48 0 61 3;
#X connect 49 0 62 3;
#X connect 50 0 38 0;
#X connect 50 1 38 1;
#X connect 51 0 42 0;
#X connect 51 1 42 1;
#X connect 55 0 1 0;
#X connect 56 0 2 0;
#X connect 57 1 34 0;
#X connect 58 0 57 0;
#X connect 60 0 12 0;
#X connect 60 1 11 0;
#X connect 61 0 36 0;
#X connect 62 0 41 0;
#X connect 63 0 28 0;
#X connect 64 0 79 0;
#X connect 64 0 80 0;
#X connect 65 0 68 0;
#X connect 65 0 76 0;
#X connect 65 0 96 0;
#X connect 65 1 77 0;
#X connect 67 0 97 0;
#X connect 67 0 98 0;
#X connect 67 0 69 0;
#X connect 68 0 64 0;
#X connect 69 0 77 3;
#X connect 70 0 71 0;
#X connect 71 0 72 0;
#X connect 72 0 74 0;
#X connect 73 0 65 0;
#X connect 74 0 73 0;
#X connect 74 1 73 1;
#X connect 75 0 73 0;
#X connect 75 1 31 0;
#X connect 76 0 66 0;
#X connect 77 0 68 1;
#X connect 78 0 9 0;
#X connect 78 0 16 0;
#X connect 79 0 58 0;
#X connect 81 0 92 1;
#X connect 82 0 92 2;
#X connect 83 0 92 3;
#X connect 84 0 92 4;
#X connect 85 0 89 0;
#X connect 86 0 85 0;
#X connect 87 0 86 0;
#X connect 88 0 92 0;
#X connect 92 0 85 0;
#X connect 94 0 61 1;
#X connect 95 0 62 1;
#X connect 97 0 77 2;
#X connect 98 0 77 1;
#X connect 99 0 10 0;
#X connect 99 0 18 0;
