#N canvas 120 81 969 719 10;
#X floatatom 316 56 5 0 0 0 - - -, f 5;
#X text 307 35 attack(ms);
#X floatatom 403 56 5 0 0 0 - - -, f 5;
#X floatatom 481 56 5 0 0 0 - - -, f 5;
#X text 472 35 sustain(%);
#X text 395 35 decay(ms);
#X floatatom 566 78 7 0 0 0 - - -, f 7;
#X text 558 35 release(ms);
#X obj 238 57 != 0;
#X obj 238 79 sel 1;
#X obj 315 18 inlet;
#X obj 403 18 inlet;
#X obj 480 1 inlet;
#X obj 566 18 inlet;
#X obj 238 15 inlet;
#X text 216 33 note ON/OFF;
#X obj 480 23 / 100;
#X obj 176 209 snapshot~;
#X obj 176 169 tgl 15 0 empty empty empty 17 7 0 10 -262144 -1 -1 0
1;
#X obj 238 191 line~;
#X obj 270 137 t b f;
#X text 309 133 attack;
#X obj 270 154 spigot;
#X obj 538 217 exp~;
#X floatatom 215 249 5 0 0 0 - - -, f 5;
#X obj 176 249 sel 1;
#X obj 368 179 pack \$1 \$2;
#X obj 403 145 t b f;
#X obj 403 162 spigot;
#X text 442 136 decay;
#X obj 483 134 f;
#X obj 332 216 line~;
#X obj 176 229 change;
#X obj 251 286 snapshot~;
#X obj 251 246 tgl 15 0 empty empty empty 17 7 0 10 -262144 -1 -1 0
1;
#X floatatom 251 326 5 0 0 0 - - -, f 5;
#X obj 176 271 t b b;
#X obj 238 101 t b b;
#X obj 238 171 pack 1 \$2;
#X obj 251 264 metro 1;
#X obj 176 187 metro 1;
#X obj 462 95 spigot;
#X obj 469 78 t b f;
#X obj 462 117 f;
#X obj 538 146 pack 0 \$2;
#X obj 332 370 *~ 0;
#X msg 208 288 1;
#X obj 237 431 *~ 0;
#X obj 134 370 ||;
#X obj 134 353 == 0;
#X obj 134 392 sel 1;
#X msg 134 414 0;
#X msg 166 414 1;
#X obj 175 331 == 1;
#X obj 175 353 t b f;
#X obj 144 496 snapshot~;
#X obj 144 456 tgl 15 0 empty empty empty 17 7 0 10 -262144 -1 -1 0
1;
#X floatatom 144 536 5 0 0 0 - - -, f 5;
#X obj 144 474 metro 1;
#X obj 357 302 == 1;
#X obj 357 319 ||;
#X obj 394 285 == 0;
#X obj 394 302 t b f;
#X obj 357 336 sel 1;
#X msg 357 353 0;
#X msg 389 353 1;
#X obj 538 163 t l b;
#X obj 538 180 f;
#X obj 538 200 line~;
#X obj 236 480 +~;
#X obj 466 324 snapshot~;
#X obj 466 182 tgl 15 0 empty empty empty 17 7 0 10 -262144 -1 -1 0
1;
#X obj 566 112 t b f;
#X obj 566 129 spigot;
#X obj 199 57 == 0;
#X obj 539 324 *~ 0;
#X obj 466 200 metro 10;
#X obj 236 502 +~;
#X obj 237 630 snapshot~;
#X obj 237 590 tgl 15 0 empty empty empty 17 7 0 10 -262144 -1 -1 0
1;
#X floatatom 237 670 5 0 0 0 - - -, f 5;
#X obj 237 608 metro 1;
#X obj 270 119 f;
#X obj 299 88 loadbang;
#X msg 299 105 0;
#X obj 538 234 -~ 1;
#X obj 538 251 /~ 1.718;
#X obj 333 235 exp~;
#X obj 333 252 -~ 1;
#X obj 333 269 /~ 1.718;
#X floatatom 314 546 5 0 0 0 - - -, f 5;
#X obj 236 572 outlet~;
#X obj 236 524 lop~ 100;
#X connect 8 0 9 0;
#X connect 8 0 22 1;
#X connect 8 0 28 1;
#X connect 8 0 41 1;
#X connect 8 0 18 0;
#X connect 8 0 49 0;
#X connect 8 0 61 0;
#X connect 8 0 56 0;
#X connect 9 0 37 0;
#X connect 9 1 44 0;
#X connect 10 0 0 0;
#X connect 10 0 20 0;
#X connect 11 0 2 0;
#X connect 11 0 27 0;
#X connect 12 0 16 0;
#X connect 13 0 72 0;
#X connect 13 0 44 1;
#X connect 13 0 6 0;
#X connect 14 0 8 0;
#X connect 14 0 74 0;
#X connect 16 0 3 0;
#X connect 16 0 42 0;
#X connect 17 0 24 0;
#X connect 17 0 32 0;
#X connect 18 0 40 0;
#X connect 19 0 17 0;
#X connect 19 0 47 0;
#X connect 20 0 22 0;
#X connect 20 1 38 1;
#X connect 22 0 38 0;
#X connect 23 0 85 0;
#X connect 25 0 36 0;
#X connect 26 0 31 0;
#X connect 27 0 28 0;
#X connect 27 1 26 1;
#X connect 28 0 26 0;
#X connect 30 0 26 0;
#X connect 31 0 87 0;
#X connect 32 0 25 0;
#X connect 32 0 53 0;
#X connect 33 0 35 0;
#X connect 34 0 39 0;
#X connect 36 0 30 0;
#X connect 36 1 46 0;
#X connect 37 0 38 0;
#X connect 37 1 82 0;
#X connect 38 0 19 0;
#X connect 39 0 33 0;
#X connect 40 0 17 0;
#X connect 41 0 43 0;
#X connect 42 0 41 0;
#X connect 42 1 43 1;
#X connect 42 1 30 1;
#X connect 43 0 31 0;
#X connect 44 0 66 0;
#X connect 45 0 69 1;
#X connect 46 0 31 0;
#X connect 47 0 69 0;
#X connect 48 0 50 0;
#X connect 49 0 48 0;
#X connect 50 0 51 0;
#X connect 50 1 52 0;
#X connect 51 0 47 1;
#X connect 51 0 59 0;
#X connect 52 0 47 1;
#X connect 52 0 59 0;
#X connect 53 0 54 0;
#X connect 54 0 48 0;
#X connect 54 1 48 1;
#X connect 55 0 57 0;
#X connect 55 0 67 1;
#X connect 56 0 58 0;
#X connect 58 0 55 0;
#X connect 59 0 60 0;
#X connect 60 0 63 0;
#X connect 61 0 62 0;
#X connect 62 0 60 0;
#X connect 62 1 60 1;
#X connect 63 0 64 0;
#X connect 63 1 65 0;
#X connect 64 0 45 1;
#X connect 65 0 45 1;
#X connect 66 0 68 0;
#X connect 66 1 67 0;
#X connect 67 0 68 0;
#X connect 68 0 23 0;
#X connect 69 0 55 0;
#X connect 69 0 77 0;
#X connect 70 0 67 1;
#X connect 70 0 82 1;
#X connect 71 0 76 0;
#X connect 72 0 73 0;
#X connect 72 1 44 1;
#X connect 73 0 44 0;
#X connect 74 0 73 1;
#X connect 74 0 75 1;
#X connect 74 0 71 0;
#X connect 75 0 77 1;
#X connect 76 0 70 0;
#X connect 77 0 92 0;
#X connect 78 0 80 0;
#X connect 79 0 81 0;
#X connect 81 0 78 0;
#X connect 82 0 19 0;
#X connect 83 0 84 0;
#X connect 84 0 82 1;
#X connect 85 0 86 0;
#X connect 86 0 75 0;
#X connect 86 0 70 0;
#X connect 87 0 88 0;
#X connect 88 0 89 0;
#X connect 89 0 45 0;
#X connect 89 0 33 0;
#X connect 92 0 91 0;
#X connect 92 0 78 0;
