#N canvas 732 89 450 719 10;
#X obj 94 -4 inlet;
#X obj 94 18 sel 1;
#X msg 94 66 create;
#X obj 94 83 gemwin;
#X msg 147 66 destroy;
#X msg 213 66 1;
#X msg 245 66 0;
#X obj 123 447 translateXYZ;
#X obj 150 239 vsl 15 128 0 1 0 0 empty empty empty 0 -9 0 10 -262144
-1 -1 0 1;
#X obj 214 241 vsl 15 128 0.01 1 0 0 empty empty empty 0 -9 0 10 -262144
-1 -1 0 1;
#X obj 123 493 circle 0.1;
#X obj 250 335 loadbang;
#X obj 150 375 *;
#X obj 214 375 *;
#X obj 150 397 -;
#X obj 214 397 -;
#X obj 250 380 / 2;
#X msg 250 358 8;
#X obj 123 469 color 0 0 1;
#X msg 277 66 dimen 543 429;
#X obj 71 430 gemhead 2;
#X obj 277 42 loadbang;
#X obj 213 42 loadbang;
#X obj 32 759 pix_draw;
#X obj 32 718 gemhead 1;
#X obj 32 739 pix_image;
#X obj 98 522 notein;
#X obj 98 542 mtof;
#X obj 350 593 r zmin;
#X obj 405 593 r zmax;
#X obj 387 614 f;
#X obj 332 614 f;
#X obj 273 614 f;
#X obj 218 614 f;
#X obj 236 593 r gmin;
#X obj 291 593 r gmax;
#X obj 98 597 t b b b b b;
#X obj 332 631 list append;
#X obj 218 631 list append;
#X obj 218 648 list append;
#X obj 98 648 f;
#X obj 144 665 list append;
#X obj 98 572 t b f;
#X msg 144 722 open ../SVM/clarinet/png/isSound_\$1_\$2_\$3_\$4_\$5.png
;
#X floatatom 49 559 7 0 0 0 - - -, f 7;
#X obj 221 447 outlet;
#X obj 271 447 outlet;
#X obj 114 687 print;
#X obj 94 40 t b b;
#X obj 286 358 * 1.265;
#X obj 286 380 / 2;
#X obj 287 86 loadbang;
#X obj 287 151 hid;
#X obj 287 173 route abs;
#X obj 150 131 / 4095;
#X obj 214 131 / 4095;
#X obj 287 195 route abs_x abs_y;
#X obj 287 108 t b b;
#X obj 214 90 * -1;
#X obj 214 112 + 4095;
#X msg 287 129 open 15;
#X msg 369 127 poll 2;
#X connect 0 0 1 0;
#X connect 1 0 48 0;
#X connect 1 1 4 0;
#X connect 2 0 3 0;
#X connect 4 0 3 0;
#X connect 5 0 3 0;
#X connect 6 0 3 0;
#X connect 7 0 18 0;
#X connect 8 0 12 0;
#X connect 8 0 45 0;
#X connect 9 0 13 0;
#X connect 9 0 46 0;
#X connect 11 0 17 0;
#X connect 12 0 14 0;
#X connect 13 0 15 0;
#X connect 14 0 7 1;
#X connect 15 0 7 2;
#X connect 16 0 15 1;
#X connect 17 0 13 1;
#X connect 17 0 16 0;
#X connect 17 0 49 0;
#X connect 18 0 10 0;
#X connect 19 0 3 0;
#X connect 20 0 7 0;
#X connect 21 0 19 0;
#X connect 22 0 5 0;
#X connect 24 0 25 0;
#X connect 25 0 23 0;
#X connect 26 0 27 0;
#X connect 27 0 42 0;
#X connect 27 0 44 0;
#X connect 28 0 31 1;
#X connect 29 0 30 1;
#X connect 30 0 37 1;
#X connect 31 0 37 0;
#X connect 32 0 38 1;
#X connect 33 0 38 0;
#X connect 34 0 33 1;
#X connect 35 0 32 1;
#X connect 36 0 40 0;
#X connect 36 1 33 0;
#X connect 36 2 32 0;
#X connect 36 3 31 0;
#X connect 36 4 30 0;
#X connect 37 0 39 1;
#X connect 38 0 39 0;
#X connect 39 0 41 1;
#X connect 40 0 41 0;
#X connect 41 0 43 0;
#X connect 41 0 47 0;
#X connect 42 0 36 0;
#X connect 42 1 40 1;
#X connect 43 0 25 0;
#X connect 48 0 5 0;
#X connect 48 1 2 0;
#X connect 49 0 12 1;
#X connect 49 0 50 0;
#X connect 50 0 14 1;
#X connect 51 0 57 0;
#X connect 52 0 53 0;
#X connect 53 0 56 0;
#X connect 54 0 8 0;
#X connect 55 0 9 0;
#X connect 56 0 54 0;
#X connect 56 1 58 0;
#X connect 57 0 61 0;
#X connect 57 1 60 0;
#X connect 58 0 59 0;
#X connect 59 0 55 0;
#X connect 60 0 52 0;
#X connect 61 0 52 0;
