#N canvas 312 126 734 496 10;
#X obj 146 111 inlet;
#X text 188 110 note;
#X obj 252 112 inlet;
#X obj 367 112 inlet;
#X obj 252 151 -;
#X text 296 111 note max;
#X text 411 111 note min;
#X obj 367 134 t b f;
#X obj 146 151 -;
#X obj 252 173 t b f;
#X obj 146 190 /;
#X text 194 214 ratio (%);
#X obj 146 285 outlet;
#X obj 146 212 + 1;
#X obj 500 117 inlet;
#X text 544 115 on/off;
#X obj 500 139 sel 1;
#X obj 532 164 t b b;
#X msg 564 186 0;
#X msg 500 164 1;
#X obj 146 234 spigot;
#X msg 532 186 1;
#X obj 264 281 f;
#X connect 0 0 8 0;
#X connect 2 0 4 0;
#X connect 3 0 7 0;
#X connect 4 0 9 0;
#X connect 7 0 4 0;
#X connect 7 0 8 0;
#X connect 7 1 4 1;
#X connect 7 1 8 1;
#X connect 8 0 10 0;
#X connect 9 0 10 0;
#X connect 9 1 10 1;
#X connect 10 0 13 0;
#X connect 13 0 20 0;
#X connect 14 0 16 0;
#X connect 16 0 19 0;
#X connect 16 1 17 0;
#X connect 17 0 21 0;
#X connect 17 1 18 0;
#X connect 18 0 20 1;
#X connect 19 0 20 1;
#X connect 20 0 12 0;
#X connect 21 0 22 0;
#X connect 22 0 12 0;
