#N canvas 41 81 450 342 10;
#X obj 104 34 notein;
#X obj 236 74 == 0;
#X text 152 33 monophonic note control;
#X obj 123 74 != 0;
#X obj 123 96 +;
#X obj 152 97 f;
#X floatatom 152 141 5 0 0 0 - - -, f 5;
#X msg 312 79 0;
#X obj 152 119 >;
#X obj 236 96 +;
#X obj 266 96 f;
#X obj 312 62 loadbang;
#X obj 28 61 spigot;
#X obj 77 61 > 0;
#X floatatom 28 83 5 0 0 0 - - -, f 5;
#X obj 152 180 outlet;
#X obj 28 180 outlet;
#X text 76 181 MIDI note;
#X text 204 182 MIDI velocity;
#X connect 0 0 12 0;
#X connect 0 1 1 0;
#X connect 0 1 3 0;
#X connect 0 1 13 0;
#X connect 1 0 9 0;
#X connect 3 0 4 0;
#X connect 4 0 5 0;
#X connect 5 0 4 1;
#X connect 5 0 8 0;
#X connect 7 0 5 0;
#X connect 7 0 10 0;
#X connect 8 0 6 0;
#X connect 8 0 15 0;
#X connect 9 0 10 0;
#X connect 10 0 9 1;
#X connect 10 0 8 1;
#X connect 11 0 7 0;
#X connect 12 0 14 0;
#X connect 12 0 16 0;
#X connect 13 0 12 1;
