#N canvas 41 89 450 300 10;
#X obj 10 210 inlet;
#X obj 130 210 r \$0-read;
#X obj 130 240 faust-control \$0;
#X obj 130 270 s \$0-write;
#X obj 10 270 r \$0-in;
#X obj 10 300 checkrinette~;
#X obj 10 330 s \$0-out;
#X obj 70 360 outlet~;
#X obj 10 360 outlet;
#X obj 10 30 hsl 128 15 50 1300 0 0 \$0-checkrinette/Frequency \$0-checkrinette/Frequency
Frequency -2 -6 0 10 -262144 -1 -1 3057 1;
#X obj 160 30 nbx 5 14 50 1300 0 0 \$0-checkrinette/Frequency \$0-checkrinette/Frequency
empty 0 -6 0 10 -262144 -1 -1 350.856 256;
#X obj 10 60 tgl 15 0 \$0-checkrinette/Play \$0-checkrinette/Play Play
0 -6 0 10 -262144 -1 -1 1 1;
#X obj 10 90 hsl 128 15 0 2 0 0 \$0-checkrinette/gamma \$0-checkrinette/gamma
gamma -2 -6 0 10 -262144 -1 -1 0 1;
#X obj 160 90 nbx 5 14 0 2 0 0 \$0-checkrinette/gamma \$0-checkrinette/gamma
empty 0 -6 0 10 -262144 -1 -1 0 256;
#X obj 10 120 hsl 128 15 0 4 0 0 \$0-checkrinette/zeta \$0-checkrinette/zeta
zeta -2 -6 0 10 -262144 -1 -1 7057 1;
#X obj 160 120 nbx 5 14 0 4 0 0 \$0-checkrinette/zeta \$0-checkrinette/zeta
empty 0 -6 0 10 -262144 -1 -1 2.22271 256;
#X obj 197 3 bng 15 250 50 1 \$0-init \$0-ignore empty 0 -6 0 10 -262144
-1 -1;
#X obj 217 3 tgl 15 1 \$0-active \$0-active empty 0 -6 0 10 -262144
-1 -1 1 1;
#X obj 450 10 r \$0-init;
#X obj 690 10 s \$0-in;
#X obj 810 10 s \$0-read;
#X obj 930 10 r \$0-write;
#X msg 450 30 1;
#X obj 450 50 s \$0-active;
#X obj 690 30 r \$0-active;
#X msg 690 50 active \$1;
#X obj 930 30 route active;
#X obj 930 50 s \$0-active;
#X msg 450 70 220;
#X obj 450 90 s \$0-checkrinette/Frequency;
#X obj 690 70 r \$0-checkrinette/Frequency;
#X msg 690 90 /checkrinette/Frequency \$1;
#X obj 930 70 route /checkrinette/Frequency;
#X obj 930 90 s \$0-checkrinette/Frequency;
#X msg 450 110 0;
#X obj 450 130 s \$0-checkrinette/Play;
#X obj 690 110 r \$0-checkrinette/Play;
#X msg 690 130 /checkrinette/Play \$1;
#X obj 930 110 route /checkrinette/Play;
#X obj 930 130 s \$0-checkrinette/Play;
#X msg 450 150 0;
#X obj 450 170 s \$0-checkrinette/gamma;
#X obj 690 150 r \$0-checkrinette/gamma;
#X msg 690 170 /checkrinette/gamma \$1;
#X obj 930 150 route /checkrinette/gamma;
#X obj 930 170 s \$0-checkrinette/gamma;
#X msg 450 190 0;
#X obj 450 210 s \$0-checkrinette/zeta;
#X obj 690 190 r \$0-checkrinette/zeta;
#X msg 690 210 /checkrinette/zeta \$1;
#X obj 930 190 route /checkrinette/zeta;
#X obj 930 210 s \$0-checkrinette/zeta;
#X text 0 160 Generated Wed Jan 17 18:56:42 2018 by faust2pd v2.12.
See http://faust.grame.fr and http://purelang.bitbucket.org.;
#X connect 0 0 2 0;
#X connect 0 0 8 0;
#X connect 1 0 2 0;
#X connect 2 0 3 0;
#X connect 4 0 5 0;
#X connect 5 0 6 0;
#X connect 5 1 7 0;
#X connect 18 0 28 0;
#X connect 18 0 34 0;
#X connect 18 0 40 0;
#X connect 18 0 46 0;
#X connect 21 0 26 0;
#X connect 22 0 23 0;
#X connect 24 0 25 0;
#X connect 25 0 19 0;
#X connect 26 0 27 0;
#X connect 26 1 32 0;
#X connect 28 0 29 0;
#X connect 30 0 31 0;
#X connect 31 0 19 0;
#X connect 32 0 33 0;
#X connect 32 1 38 0;
#X connect 34 0 35 0;
#X connect 36 0 37 0;
#X connect 37 0 19 0;
#X connect 38 0 39 0;
#X connect 38 1 44 0;
#X connect 40 0 41 0;
#X connect 42 0 43 0;
#X connect 43 0 19 0;
#X connect 44 0 45 0;
#X connect 44 1 50 0;
#X connect 46 0 47 0;
#X connect 48 0 49 0;
#X connect 49 0 19 0;
#X connect 50 0 51 0;
#X coords 0 -1 1 1 235 140 1 0 0;
