#N canvas 41 53 1239 747 10;
#X obj 63 178 mtof;
#X obj 293 552 dac~;
#X msg 220 263 gamma \$1;
#X msg 299 264 zeta \$1;
#X floatatom 634 62 5 0 0 0 - - -, f 5;
#X obj 634 17 ctlin;
#X floatatom 650 41 5 0 0 0 - - -, f 5;
#X msg 785 91 1.1;
#X obj 735 74 loadbang;
#X text 819 89 gamma min/max;
#X text 998 90 zeta min/max;
#X obj 735 143 -;
#X obj 918 142 -;
#X obj 900 167 *;
#X obj 717 167 *;
#X obj 900 189 +;
#X obj 717 189 +;
#X obj 63 323 checkrinette;
#X msg 63 268 Frequency \$1;
#X obj 735 113 s gmin;
#X obj 785 113 s gmax;
#X obj 918 113 s zmin;
#X obj 970 113 s zmax;
#X msg 735 91 0;
#X msg 918 91 0;
#X obj 156 284 loadbang;
#X msg 156 306 active 1;
#X msg 103 306 Play 1;
#X obj 717 31 tgl 15 0 empty empty empty 17 7 0 10 -262144 -1 -1 0
1;
#X obj 714 413 vsl 15 128 0 50 0 1 empty empty empty 0 -9 0 10 -262144
-1 -1 0 1;
#X obj 729 413 vsl 15 128 0 200 0 1 empty empty empty 0 -9 0 10 -262144
-1 -1 12400 1;
#X obj 744 413 vsl 15 128 0 100 0 1 empty empty empty 0 -9 0 10 -258113
-1 -1 11200 1;
#X obj 759 413 vsl 15 128 0 1000 0 1 empty empty empty 0 -9 0 10 -262144
-1 -1 1900 1;
#X obj 699 595 snapshot~;
#X obj 788 578 metro 1;
#X obj 788 557 tgl 15 0 empty empty empty 17 7 0 10 -262144 -1 -1 1
1;
#X obj 674 528 > 0;
#X floatatom 762 206 5 0 0 0 - - -, f 5;
#X obj 699 617 *;
#X obj 292 500 *~;
#X obj 310 360 vsl 15 128 0 40 0 0 empty empty empty 0 -9 0 10 -262144
-1 -1 4200 1;
#X floatatom 717 336 5 0 0 0 - - -, f 5;
#X obj 63 135 t f f;
#X msg 762 297 1.1;
#X obj 717 373 *;
#X obj 717 270 notein 1;
#X obj 801 272 loadbang;
#X floatatom 131 220 5 0 0 0 - - -, f 5;
#X msg 190 130 31;
#X msg 159 130 1000;
#X obj 230 113 loadbang;
#X obj 133 174 *;
#X floatatom 900 336 5 0 0 0 - - -, f 5;
#X obj 900 373 *;
#X obj 900 270 notein 1;
#X obj 984 272 loadbang;
#X msg 953 297 0.2;
#X floatatom 945 206 5 0 0 0 - - -, f 5;
#X msg 735 297 100;
#X msg 926 297 50;
#X text 910 51 (!) cartographie n'utilise pas kbdTrack;
#X obj 802 299 tgl 15 0 empty empty empty 17 7 0 10 -4034 -1 -1 0 1
;
#X obj 985 299 tgl 15 0 empty empty empty 17 7 0 10 -4034 -1 -1 0 1
;
#X obj 227 137 tgl 15 0 empty empty empty 17 7 0 10 -4034 -1 -1 1 1
;
#X obj 717 211 t b f;
#X obj 900 211 t b f;
#X text 775 517 enveloppe sur gamma;
#X obj 699 642 s gammaCtl;
#X obj 900 398 s zetaCtl;
#X obj 220 240 r gammaCtl;
#X obj 299 241 r zetaCtl;
#X obj 321 4 bendin;
#X obj 321 26 - 8192;
#X obj 321 48 / 8192;
#X obj 63 87 +;
#X obj 321 70 t b f;
#X obj 63 65 ../ControlTool/monophonicControl;
#X obj 131 200 ../ControlTool/linearizeFreq;
#X obj 717 50 ../ControlTool/displayCarto;
#X obj 717 314 ../ControlTool/kbdTrack;
#X obj 900 314 ../ControlTool/kbdTrack;
#X obj 699 548 ../ControlTool/adsrV2;
#X obj 133 152 ../ControlTool/kbdTrack;
#X msg 970 91 2;
#X floatatom 25 172 5 0 0 0 - - -, f 5;
#X obj 63 246 moses 600;
#X connect 0 0 84 0;
#X connect 0 0 77 0;
#X connect 2 0 17 0;
#X connect 3 0 17 0;
#X connect 5 0 4 0;
#X connect 5 1 6 0;
#X connect 7 0 11 0;
#X connect 7 0 20 0;
#X connect 8 0 23 0;
#X connect 8 0 7 0;
#X connect 8 0 24 0;
#X connect 8 0 83 0;
#X connect 11 0 14 1;
#X connect 12 0 13 1;
#X connect 13 0 15 0;
#X connect 14 0 16 0;
#X connect 15 0 57 0;
#X connect 15 0 65 0;
#X connect 16 0 37 0;
#X connect 16 0 64 0;
#X connect 17 1 39 0;
#X connect 18 0 17 0;
#X connect 23 0 11 1;
#X connect 23 0 16 1;
#X connect 23 0 19 0;
#X connect 24 0 12 1;
#X connect 24 0 15 1;
#X connect 24 0 21 0;
#X connect 25 0 26 0;
#X connect 25 0 27 0;
#X connect 26 0 17 0;
#X connect 27 0 17 0;
#X connect 28 0 78 0;
#X connect 29 0 81 1;
#X connect 30 0 81 2;
#X connect 31 0 81 3;
#X connect 32 0 81 4;
#X connect 33 0 38 0;
#X connect 34 0 33 0;
#X connect 35 0 34 0;
#X connect 36 0 81 0;
#X connect 38 0 67 0;
#X connect 39 0 1 0;
#X connect 39 0 1 1;
#X connect 40 0 39 1;
#X connect 41 0 44 0;
#X connect 42 0 51 0;
#X connect 42 0 0 0;
#X connect 42 1 82 0;
#X connect 43 0 79 2;
#X connect 44 0 38 1;
#X connect 45 0 79 0;
#X connect 46 0 58 0;
#X connect 46 0 43 0;
#X connect 47 0 85 0;
#X connect 48 0 82 2;
#X connect 49 0 82 1;
#X connect 50 0 48 0;
#X connect 50 0 49 0;
#X connect 50 0 63 0;
#X connect 52 0 53 0;
#X connect 53 0 68 0;
#X connect 54 0 80 0;
#X connect 55 0 59 0;
#X connect 55 0 56 0;
#X connect 56 0 80 2;
#X connect 58 0 79 1;
#X connect 59 0 80 1;
#X connect 61 0 79 3;
#X connect 62 0 80 3;
#X connect 63 0 82 3;
#X connect 64 0 44 0;
#X connect 64 1 44 1;
#X connect 65 0 53 0;
#X connect 65 1 53 1;
#X connect 69 0 2 0;
#X connect 70 0 3 0;
#X connect 71 0 72 0;
#X connect 72 0 73 0;
#X connect 73 0 75 0;
#X connect 74 0 42 0;
#X connect 75 0 74 0;
#X connect 75 1 74 1;
#X connect 76 0 74 0;
#X connect 76 1 36 0;
#X connect 77 0 47 0;
#X connect 78 0 14 0;
#X connect 78 1 13 0;
#X connect 79 0 41 0;
#X connect 80 0 52 0;
#X connect 81 0 33 0;
#X connect 82 0 51 1;
#X connect 83 0 12 0;
#X connect 83 0 22 0;
#X connect 85 0 18 0;
